<?xml version="1.0" encoding="UTF-8"?>
<svg width="1200pt" height="1200pt" version="1.1" viewBox="0 0 1200 1200" xmlns="http://www.w3.org/2000/svg">
 <g fill="#08362f">
  <path d="m463.2 369.6c-10.801-18-34.801-31.199-72-12-20.398 10.801-45.602 33.602-73.199 60-1.1992 1.1992-3.6016 3.6016-4.8008 4.8008-6 6-16.801 4.8008-21.602-2.3984-3.6016-6-2.3984-14.398 2.3984-19.199 1.1992-1.1992 2.3984-2.3984 4.8008-3.6016 21.602-19.199 40.801-37.199 58.801-50.398 7.1992-4.8008 14.398-9.6016 21.602-13.199 28.801-14.398 54-15.602 74.398-7.1992 28.801-13.199 56.398-25.199 74.398-30 51.602-15.602 38.398-85.199-16.801-82.801-55.199 2.3984-238.8 22.801-301.2 75.602-28.801 24-67.199 68.398-98.398 115.2-4.8008 7.1992-13.199 12-21.602 12l-39.598-0.007812c-10.801 0-20.398 9.6016-20.398 20.398v130.8c0 12 9.6016 20.398 20.398 20.398 22.801 0 60-1.1992 92.398-3.6016 66-3.6016 129.6-24 156-39.602 24-14.398 54-38.398 81.602-63.602 24-21.602 50.398-44.398 74.398-60 16.805-15.59 16.805-35.992 8.4023-51.59z"/>
  <path d="m1149.6 615.6c-22.801 0-60 1.1992-92.398 3.6016-66 3.6016-129.6 24-156 39.602-24 14.398-54 38.398-81.602 63.602-24 21.602-50.398 44.398-74.398 60-16.801 10.801-16.801 32.398-8.3984 46.801 10.801 18 34.801 31.199 72 12 20.398-10.801 45.602-33.602 73.199-60 1.1992-1.1992 3.6016-3.6016 4.8008-4.8008 6-6 16.801-4.8008 21.602 2.3984 3.6016 6 2.3984 14.398-2.3984 19.199-1.1992 1.1992-2.3984 2.3984-4.8008 3.6016-21.602 19.199-40.801 37.199-58.801 50.398-7.1992 4.8008-14.398 9.6016-21.602 13.199-28.801 14.398-54 15.602-74.398 7.1992-28.801 13.199-56.398 25.199-74.398 30-51.602 15.602-38.398 85.199 16.801 82.801 55.199-2.3984 238.8-22.801 301.2-75.602 28.801-24 67.199-68.398 98.398-115.2 4.8008-7.1992 13.199-12 21.602-12h37.199c10.801 0 20.398-9.6016 20.398-20.398l-0.003907-127.2c2.3984-10.801-7.2031-20.402-18-19.199z"/>
  <path d="m805.2 638.4c42-42 42-110.4 0-153.6-21.602-21.602-49.199-31.199-76.801-31.199-27.602 0-55.199 10.801-76.801 31.199l-16.797 19.203-18-18c-21.602-21.602-49.199-31.199-76.801-31.199-28.801 0-57.602 10.801-78 33.602-40.801 43.199-38.398 110.4 3.6016 152.4l156 156c7.1992 7.1992 18 7.1992 25.199 0z"/>
 </g>
</svg>
