<?xml version="1.0" encoding="UTF-8"?>
<svg width="1200pt" height="1200pt" version="1.1" viewBox="0 0 1200 1200" xmlns="http://www.w3.org/2000/svg">
 <path d="m579.66 1066.3c0-8.9297-9.6719-24.551 12.648-33.48 22.32-8.9297 57.289-23.809 72.18-33.48 11.773-7.6562 31.992-34.969 31.992-34.969s-4.1289-29.258-23.062-20.832c-13.391 5.9531-16.367 18.602-26.785 27.527-10.414 8.9297-40.922 17.855-46.871 14.879-5.9531-2.9766-20.832-12.648-16.367-24.551 4.4648-11.902 1.4883-20.832-10.414-17.855-11.902 2.9766-6.6953 9.6719-9.6719 26.039-2.9766 16.367-2.2305 48.359-18.602 67.703-16.367 19.344-70.691 17.113-82.598 6.6953-11.902-10.414-19.344-18.602-14.879-30.504 4.4648-11.902 8.9297-25.297-1.4883-29.762-10.414-4.4648-8.9297-0.74219-16.367 0.74219-7.4414 1.4883-27.527 3.7188-32.734-13.391-4.4648-14.652-29.398-11.531-9.6719-46.871 17.855-31.992 29.016-46.129 76.645-55.801 46.871-9.5156 68.449 5.9531 81.852-1.4883 13.402-7.4414 25.754-27.266 11.902-26.039-25.297 2.2305-38.688 8.1836-44.641 6.6953-5.9531-1.4883-26.785-14.879-20.832-23.809s19.344-29.762 8.9297-35.711c-10.414-5.9531-14.879 1.4883-22.32 8.9297s-17.855 32.734-31.246 43.152c-13.391 10.414-26.785 26.785-40.176 31.246-13.391 4.4648-35.711 17.855-56.543 19.344l-20.832 1.4883s-26.039-2.9766-31.992-10.414c-5.9531-7.4414-9.6719-11.184-9.6719-25.297 0-14.137-2.2305-26.785 17.113-40.176s40.922-17.855 40.922-22.32c0-4.4648-5.9023-15.648-22.32-14.879-31.992 1.4883-46.129-40.176-26.785-52.078 19.344-11.902 44.641-19.344 55.055-19.344 10.414 0 37.199 7.4414 43.152 10.414 5.9531 2.9766 10.414-1.4883 7.4414-7.4414-2.9766-5.9531-13.391-31.246-26.785-34.223-13.391-2.9766-43.152-8.9297-50.594-4.4648-12.035 7.2227-62.496 44.641-75.898 47.617-13.391 2.9766-28.273-1.4883-31.246-7.4414-2.9766-5.9531-7.4414-22.32-5.9531-34.223 1.4883-11.902 5.9531-25.297 5.9531-25.297s-1.4883-7.4414-11.902-8.9297c-10.414-1.4883-29.762-10.414-29.762-10.414s-4.4648-25.297 5.9531-28.273c10.414-2.9766 35.711-26.785 53.566-26.785s99.707 40.176 130.96 52.078c31.246 11.902 46.129 26.785 62.496 34.223 16.367 7.4414 32.734 10.414 35.711-5.9531 2.9766-16.367-5.9531-29.762-19.344-34.223-13.391-4.4648-76.273-65.258-76.645-69.949-0.74219-9.6719-12.648-41.664 17.113-37.199 29.762 4.4648 38.688 0.74219 47.617 12.648 8.9297 11.902 7.4414 24.551 13.391 17.113 5.9531-7.4414 10.344-29.809 4.4648-46.129-6.6953-18.602-10.414-40.176-23.809-44.641-13.391-4.4648-26.832-5.543-30.504-34.969-1.4883-11.902-0.97266-37.5 43.152-34.223 40.176 2.9766 52.824 5.207 67.703 43.895 14.879 38.688 10.414 68.449 10.414 102.68 0 34.234-13.391 78.875-11.902 101.2s21.684 30.035 26.785 29.016c11.16-2.2305 31.246-43.895 24.551-55.801-9.1445-16.262-18.602-38.688-18.602-38.688s-11.902-45.383 20.832-52.824c19.094-4.332 35.52 13.754 40.176 23.062 5.9531 11.902 5.9531 52.078 6.6953 67.703 0.79297 16.621-9.7695 66.445-26.039 84.086-8.9297 9.6719-5.9531 50.594-2.9766 55.055 2.9766 4.4648-1.4883 44.641 13.391 38.688 14.879-5.9531 19.344-23.809 22.32-35.711 2.9766-11.902-1.3203-40.453 17.855-49.105 23.062-10.414 50.594-8.9297 56.543 0 5.9531 8.9297 16.367 50.594 2.9766 71.438-13.391 20.832-32.734 61.008-11.902 77.387 20.832 16.367 55.801 23.809 61.008-2.2305 7.1055-35.508-7.4414-45.383-7.4414-60.266 0-14.879 6.6719-39.434 25.297-44.641 18.602-5.207 46.129 5.9531 47.617 19.344s7.957 43.57 16.367 43.152c14.879-0.74219 38.688-55.055 24.551-84.828-4.0938-8.6055-8.1836-20.832-24.551-23.809-16.367-2.9766-61.008 16.367-77.387-4.4648-16.367-20.832-30.504-34.223-2.2305-41.664 28.273-7.4414 35.711 1.4883 38.688-3.7188 10.043-17.566 8.1836-33.48-11.16-43.895-19.344-10.414-68.449 11.902-90.781-4.4648-22.32-16.367-29.016-44.641-15.625-55.055 13.391-10.414 34.969-26.039 63.238-20.09 28.273 5.9531 36.457 17.855 46.871 14.879 10.414-2.9766 18.602-20.832 11.16-22.32s-33.48-13.391-14.879-30.504c14.398-13.246 23.809-11.902 37.199-16.367s0-25.297 0-25.297-28.273-25.297-56.543-16.367c-28.273 8.9297-58.031 34.223-74.41 34.223-16.367 0-39.434-13.391-15.625-29.762 23.809-16.367 16.957-16.586 13.391-31.992-2.2305-9.6719-26.039-3.7188-36.457 0.74219-31.246 13.391-55.055 22.32-65.473 20.832-10.414-1.4883-55.055-16.367-50.594-34.223 4.4648-17.855 6.6953-37.199 24.551-37.199s34.223-0.74219 29.762-17.113c-4.4648-16.367-17.113-8.1836-15.625-20.09 1.4883-11.902-10.414-58.031 26.785-52.078 37.199 5.9531 56.543 5.9531 74.41 26.785 7.0547 8.2188 20.832 49.105 26.785 55.055 5.9531 5.9531 23.062 16.367 27.527 5.9531 4.4648-10.414-0.74219-5.9531-8.1836-23.809-7.4414-17.855-16.367-38.688-17.855-52.078-1.4883-13.391-3.7188-49.848 24.551-49.848 28.273 0 24.551 17.113 30.504 17.113s11.902-22.32-1.4883-32.734c-13.391-10.414-19.344-28.273-31.246-40.176-11.902-11.902-22.32-34.223-19.344-44.641 2.9766-10.414-0.83984-16.848 24.551-33.48 21.574-14.137 57.289-17.855 69.949-0.74219 12.875 17.426 22.465 88.332 23.062 107.15 0.74219 23.062-29.762 78.875-32.734 105.66-2.9766 26.785-2.9766 40.176 10.414 49.105 13.391 8.9297 22.32-2.9766 24.551-12.648 3.3594-14.566-1.0781-49.766-0.74219-61.754 0.74219-26.785 17.062-44.398 32.734-49.105 14.879-4.4648 37.199-15.625 56.543 25.297 3.1797 6.7305-7.4414 55.055-22.32 77.387-14.879 22.32-10.414 35.711-1.4883 46.871 4.6445 5.8086 25.297 17.855 34.223 3.7188 12.84-20.328 4.4648-46.129 10.414-53.566 5.9531-7.4414 42.406-27.527 49.848-20.09 7.4414 7.4414 35.965 18.371 19.344 84.086-16.367 64.727-52.824 71.438-79.621 81.852-26.785 10.414-34.969 40.176-21.574 49.105 25.523 17.016 49.848 1.4883 51.336-2.9766 3.8281-11.496-1.2734-22.738 24.551-38.688 25.297-15.625 44.641-14.137 49.848 0.74219 2.0273 5.7969 5.9531 49.848-11.902 66.215-17.855 16.367-55.055 35.711-74.41 35.711-19.344 0-48.359 15.625-54.312 26.039s-1.4883 29.016 13.391 30.504c14.879 1.4883 43.152-19.344 52.078-31.246 8.9297-11.902 36.457-20.09 58.777-17.113 10.32 1.3789 46.129 27.527 10.414 63.238-35.711 35.711-98.965 40.922-104.91 42.406-5.9531 1.4883-9.6719 26.039-3.7188 30.504 5.9531 4.4648 17.113 5.9531 31.992-2.9766 14.879-8.9297 34.969-10.414 48.359-8.9297 13.391 1.4883 41.664 2.9766 31.246 35.711-10.414 32.734-2.9766 65.473-38.688 62.496s-49.105-7.4414-56.543-10.414c-7.4414-2.9766-28.273-2.9766-35.711 8.9297-7.4414 11.902 8.9297 16.367 8.9297 50.594 0 34.223-19.344 83.34-43.152 66.961-23.809-16.367-35.941-21.516-44.641-29.762-14.137-13.391-44.641-9.6719-44.641-9.6719s-15.625 31.246-7.4414 48.359c1.9336 4.0312 49.105 46.129 25.297 66.961s-38.688 24.551-50.594 33.48c-11.902 8.9297-14.137 35.711-20.09 46.129-5.9531 10.414-29.016 29.016-52.824 26.039-23.809-2.9766-46.129-16.367-55.055-20.832-8.8828-4.5391-17.812-22.395-17.812-22.395z"/>
</svg>
