<?xml version="1.0" encoding="UTF-8"?>
<svg width="1200pt" height="1200pt" version="1.1" viewBox="0 0 1200 1200" xmlns="http://www.w3.org/2000/svg">
 <path d="m1019.4 1065.8c-36 0-52.836-6.7305-72.336-14.508-21.023-8.4102-44.867-17.941-90.035-17.941-45.203 0-69.023 9.5273-90.047 17.941-19.5 7.7773-36.324 14.508-72.324 14.508-35.977 0-52.789-6.7305-72.277-14.508-3.1445-1.2617-6.3828-2.5312-9.707-3.793-0.70703-2.1367-1.668-4.2344-3.1562-6.1914-22.992-30.348-19.656-42.434 3.7578-68.219 10.285-11.316 17.844-23.688 22.523-36.742 0.71875-0.60156 1.3906-1.2344 2.0156-1.9219 25.199-27.336 41.832-58.547 52.246-98.027 23.172-5.0898 46.129-14.664 68.41-28.488 0.45703 0.097656 0.89844 0.17969 1.4023 0.25391 11.82 1.6445 23.723 2.4844 35.363 2.4844 80.438 0 148.21-39.145 185.91-107.36 3.5625-6.4336 3.5625-13.547 0.023438-19.523-3.8164-6.4805-11.258-10.668-18.973-10.668-7.5586 0-14.062 3.9102-17.809 10.727-28.043 50.711-77.102 81.203-135.84 84.973 41.578-39.359 76.094-89.398 108.04-137.73 4.0781-6.168 4.5859-13.141 1.3438-19.164-3.6367-6.7422-11.281-11.09-19.523-11.09-7.3086 0-13.836 3.5273-17.902 9.6719-43.188 65.316-101.54 153.59-180.2 180.39 7.0547-32.195 15.527-62.258 38.723-86.316 8.207-8.5078 17.555-15.516 27.445-22.895 13.223-9.8867 26.891-20.113 37.68-34.332 20.82-27.445 18.684-61.656 14.496-88.402-1.7031-10.754-10.703-18.266-21.863-18.266-6.2148 0-11.867 2.4492-15.527 6.7305-3.4805 4.0781-4.8828 9.5273-3.9844 15.359 5.9531 38.004-1.5117 59.773-27.492 80.316l-10.105 7.8594c-14.891 11.508-30.289 23.398-43.297 38.855-26.773 31.812-35.496 70.766-43.934 108.46-4.332 19.441-8.7969 39.336-15.77 58.066-3.5742-21.168-8.8086-40.777-13.836-58.031-14.004-48.059-13.488-98.988-11.461-138.02v-0.023438c4.2109-0.69531 8.0625-2.7461 11.293-6.0117 25.008-25.379 46.453-57.047 65.438-96.695 31.68-16.379 54.551-39.91 76.691-62.699 12.73-13.094 25.883-26.629 40.691-38.832 4.1992-3.457 10.906-6.2539 18.035-9.2148 13.488-5.6172 28.777-11.977 33.121-26.438 6.5156-21.504 22.906-31.535 41.891-43.152 6.8047-4.1523 13.727-8.3984 20.352-13.262 7.5586-5.5195 10.441-14.496 7.5352-23.41-4.2461-13.055-19.945-19.02-31.02-10.895-7.3438 5.3516-15.301 10.285-23.004 15.059-11.652 7.1992-23.699 14.664-34.465 24.07-7.7539 6.8047-12.203 13.754-16.129 19.895-5.125 8.0508-9.168 14.41-19.754 19.836-28.066 14.375-49.246 36.59-69.73 58.078-4.4766 4.7031-9.0117 9.457-13.645 14.16 17.699-54.07 21.312-97.691 11.004-132.8 8.5781-2.9023 16.871-6.3125 24.973-9.6367 14.34-5.9023 27.898-11.473 42.445-14.328 5.3164-1.043 10.199-5.0039 12.996-10.586 2.8438-5.6289 3.1562-11.941 0.81641-16.859-5.8906-12.48-7.1172-22.906-3.7578-31.859 6.9102-18.395 32.891-29.699 55.801-39.684 9.5508-4.1641 14.531-13.969 12.348-24.383-2.6172-12.574-15.156-19.703-26.809-14.578-32.137 13.98-97.68 42.516-83.785 104.1-7.2461 2.6406-14.328 5.6641-21.227 8.6172-14.676 6.3008-28.547 12.254-43.703 14.496-7.4414 1.1055-13.727 5.5195-16.789 11.82-3.0234 6.2148-2.6641 13.453 0.96094 19.859 25.234 44.426-0.74219 114-14.699 151.38-14.016 37.586-30.742 70.02-49.883 96.816 2.0391-12.203 4.2461-24.383 6.457-36.324 9-49.234 18.277-100.14 14.16-151.02-0.83984-10.586-2.375-21.059-3.8984-31.453-4.4141-29.879-8.5938-58.105 4.9062-86.23 14.207-29.641 25.414-53.039 19.223-88.895-1.8477-10.656-10.906-18.109-22.031-18.109-6.2539 0-11.902 2.4727-15.527 6.7695-3.457 4.0938-4.7891 9.5508-3.7812 15.383 4.2344 24.469-4.1875 42.938-13.934 64.344-5.0273 11.027-10.223 22.43-13.836 35.258-6.8047 24.168-1.6211 52.633 2.9531 77.734 1.7773 9.7578 3.5039 19.246 4.4648 28.031 5.6523 52.02-4.3672 106.88-14.027 159.91-7.2617 39.758-14.762 80.855-15.781 120.91-1.0547 41.809 3.793 82.633 14.41 121.29l3.7422 13.262c8.4258 29.375 17.773 62.016 11.16 91.367-18.828-41.773-34.801-85.211-50.293-127.39-15.191-41.34-30.91-84.121-49.285-125.26-3.5508-7.957-10.922-12.707-19.703-12.707-7.5 0-14.484 3.5625-18.227 9.3242-3.4336 5.3047-3.7812 11.699-0.98438 17.988 18.504 41.426 34.488 84.684 49.945 126.5l0.097656 0.27734c-62.629-24.684-73.344-113.15-81.312-178.95l-0.3125-2.6641c-1.2109-9.9961-2.1953-20.27-3.0859-30.719 5.0156-0.21484 9.6719-2.2422 13.488-5.8555 48.168-45.602 60.012-127.09 68.676-186.6l0.42188-2.8672c8.5195-58.465 16.477-134.36 2.2422-203.04-1.8945-9.1914-8.9883-15.121-18.047-15.121-6.5898 0-13.332 3.2539-17.594 8.4961-4.1289 5.0742-5.6641 11.461-4.3086 17.977 5.9531 28.691 7.7383 60.758 5.5312 100.07-36.121-25.211-49.656-80.746-62.785-134.62-7.7656-31.859-15.109-61.957-26.988-84.637-3.4805-6.625-9.4688-10.441-16.43-10.441-7.2617 0-14.531 4.2852-18.551 10.922-3.9492 6.5273-4.1641 14.184-0.58984 21 12.602 24.035 20.148 54.121 28.141 85.969 16.105 64.164 32.746 130.45 93.348 156.97-1.4648 13.129-3.1211 26.113-4.8477 39.047-6.4453 48.48-15.023 112.99-45.77 154-4.6328-49.488-12.203-96.719-35.484-136.7-3.6719-6.3125-9.707-9.9258-16.57-9.9258-7.5352 0-14.93 4.3906-18.84 11.195-3.7695 6.5508-3.707 14.148 0.19141 20.832 22.078 37.934 27.086 98.34 32.375 162.29 9.5625 115.49 20.398 246.38 144.27 260.26l0.40625 0.023437c11.125 29.258 20.988 53.484 30.805 75.684-81.191-39.793-171.82-104.16-184.52-196.4-1.5-10.859-10.391-18.457-21.637-18.457-6.1797 0-11.844 2.4492-15.539 6.6836-3.5273 4.0547-5.0391 9.4922-4.2344 15.324 7.7031 55.969 37.824 107.4 89.699 153.3-16.523-5.6523-32.93-11.555-49.02-17.352-13.402-4.8359-26.82-9.6719-40.262-14.34-11.629-4.0938-22.957 3.1562-25.008 15.324-1.8594 11.016 3.9961 21.191 14.242 24.77 13.488 4.7031 26.914 9.5508 40.344 14.398 41.891 15.121 85.199 30.758 129.5 41.473 6.3242 1.5469 12.574 0.10938 17.219-3.6367 15.996 8.9297 32.914 17.473 50.473 25.453-2.7344 4.0195-5.3984 8.6758-7.3906 13.98-6.2656 16.668-2.5312 33.012 4.1055 47.172-7.2109-0.61328-14.867-1.0547-23.508-1.0547-45.18 0-69 9.5273-90.023 17.941-19.488 7.7773-36.312 14.508-72.289 14.508-35.965 0-52.789-6.7305-72.254-14.508-21.023-8.4102-44.832-17.941-90-17.941-13.188 0-23.879 10.691-23.879 23.867s10.691 23.867 23.879 23.867c35.977 0 52.789 6.7305 72.266 14.52 21.012 8.3984 44.832 17.93 90 17.93 45.168 0 69-9.5273 90.012-17.93 19.488-7.7891 36.312-14.52 72.301-14.52 35.977 0 52.789 6.7305 72.266 14.52 21.012 8.3984 44.844 17.93 90 17.93 45.191 0 69.023-9.5273 90.035-17.93 19.5-7.7891 36.336-14.52 72.336-14.52 35.977 0 52.824 6.7305 72.312 14.52 21.035 8.3984 44.867 17.93 90.059 17.93 13.188 0 23.867-10.703 23.867-23.867-0.027343-13.098-10.719-23.789-23.906-23.789z"/>
</svg>
