<?xml version="1.0" encoding="UTF-8"?>
<svg width="1200pt" height="1200pt" version="1.1" viewBox="0 0 1200 1200" xmlns="http://www.w3.org/2000/svg">
 <g fill="#08362f">
  <path d="m1051.2 1023.6h-72l24-24c222-222 222-582 0-804-133.2-133.2-322.8-192-507.6-156-20.398 3.6016-34.801 24-30 44.398 3.6016 20.398 24 34.801 44.398 30 159.6-30 324 20.398 439.2 135.6 192 192 192 504 0 696l-24 24v-73.199c0-21.602-16.801-38.398-38.398-38.398-21.602 0-38.398 16.801-38.398 38.398v164.4c0 10.801 4.8008 20.398 10.801 27.602 7.1992 7.1992 16.801 10.801 27.602 10.801h164.4c21.602 0 38.398-16.801 38.398-38.398 0.003906-20.406-17.996-37.203-38.398-37.203z"/>
  <path d="m691.2 1084.8c-159.6 30-324-20.398-439.2-135.6-192-192-192-504 0-696l24-24v72c0 10.801 4.8008 20.398 10.801 27.602 7.1992 7.1992 16.801 10.801 26.398 10.801 21.602 0 38.398-16.801 38.398-38.398v-164.4c0-20.398-18-38.398-38.398-38.398l-164.4-0.007812c-21.602 0-38.398 16.801-38.398 38.398 0 21.602 16.801 38.398 38.398 38.398h72l-24 24c-220.8 222-220.8 583.2 1.1992 804 133.2 133.2 322.8 192 507.6 156 20.398-3.6016 34.801-24 30-44.398-3.6016-20.402-22.801-33.602-44.402-30z"/>
  <path d="m710.4 464.4c-44.398 26.398-150 98.398-229.2 177.6-82.801 82.801-140.4 171.6-159.6 198-15.602 21.602-6 51.602 19.199 60 18 6 37.199-2.3984 45.602-19.199 13.199-26.398 37.199-68.398 68.398-115.2 62.398 20.398 146.4 52.801 260.4-58.801 142.8-139.2 166.8-309.6 171.6-376.8 1.1992-13.199-8.3984-24-21.602-24-73.199-3.6016-270-7.1992-417.6 139.2-112.8 111.6-93.602 184.8-72 217.2 79.207-85.199 200.41-148.8 334.8-198z"/>
 </g>
</svg>
