<?xml version="1.0" encoding="UTF-8"?>
<svg width="1200pt" height="1200pt" version="1.1" viewBox="0 0 1200 1200" xmlns="http://www.w3.org/2000/svg">
 <path d="m473.65 572.91c22.781-4.1445 41.199-19.469 56.879-32.305 53.699-43.863 77.199-101.12 83.09-169.18 1.4336-16.801-1.8594-33.852 1.5234-50.762 6.3398-31.676 19.266-64.965 38.418-92.273 10.797-15.391 15.793-32.238 35.395-41.512 9.0039 1.7695 17.965 3.5859 23.051 9.2305 3.25 51.438-45.184 77.488-36.875 129.17 31.812-7.9531 37.926-33.781 55.355-59.973 9.1172-13.754 34.699-47.223 49.172-18.438 3.293 6.4062 0 22.715-4.5703 32.281-7.6602 15.84-27.891 34.699-43.078 55.355-7.0117 9.543-14.875 18.84-23.051 26.145-17.027 15.145-43.324 26.301-33.828 56.902 34.992-7.125 54.863-31.387 79.953-53.832 22.941-20.566 52.578-42.969 66.109-67.656 5.1992-9.543 12.523-24.531 13.844-33.852 4.8828-34.523-21.148-58.133-33.871-84.59-13.309-27.777-26.48-80.066-3.0898-104.57 16.129-1.8594 27.531 4.0547 33.871 13.844 16.512 25.652 4.7266 78.16 29.211 95.32 8.918-12.434 5.2852-30.668 6.1367-46.105 1.6367-29.078 1.0742-47.09 6.1367-67.676 8.6016-15.188 33.312-7.6602 39.965 7.6836 1.7695 4.1016 2.2617 22.246 1.5234 30.781-1.8164 22.961-8.1094 48.816-10.73 76.883-5.9609 63.375-15.906 105.49-46.172 144.54-44.445 57.418-105.09 98.859-166.09 141.49-40.438 28.273-76.57 61.539-113.78 90.73-39.875 31.273-80.176 59.746-109.21 95.367-20.273 32.484-45.5 74.711-66.109 115.3-9.6328 18.906-24.305 43.461-9.2305 59.992 20.969-7.707 28.473-30.848 41.535-46.125 13.531-15.949 29.48-27.488 49.219-36.918 52.621-25.875 113.09-42.879 149.13-90.75 9.8125-12.992 21.887-28.742 26.164-43.059 3.875-12.883 5.1289-25.672 9.2305-38.465 4.0547-12.547 5.8477-27.242 12.301-38.418 8.043-14.023 25.918-28.07 39.965-41.535 14.359-13.777 29.57-26.59 43.078-38.465 15.324-13.508 23.457-27.867 43.078-36.918 16.824 2.082 30.871 2.1289 35.375 13.867 5.1094 13.352-17.227 43.324-29.258 53.832-12.926 11.246-45.23 30.895-52.285 52.266 41.086 10.281 67.945-67.25 110.71-55.379 26.793 7.4609 30.332 42.562 9.2305 61.516-13.531 12.141-42.898 19.355-66.133 30.781-10.215 5.0195-18.977 11.133-29.211 18.438-21.797 15.457-52.578 26.57-33.871 64.586 38.418-10.797 69.445-38.152 96.891-64.586 28.184-27.129 59.59-51.078 83.023-81.523 13.508-68.707-55.223-106.88-35.375-172.23 56.094-4.457 40.414 66.914 75.34 89.184 26.301-47.043-14.496-141.65-1.5-184.5 5.1523-17.137 33.715-35.977 49.195-15.414 25.941 34.41-23.543 78.922 1.5234 112.28 38.352-15.008 31.812-74.824 66.109-93.82 10.645-37.141 50.43-12.164 41.648 18.484-4.8398 16.938-20.855 34.23-30.758 53.809-21.73 43.035-39.16 96.777-63.02 121.49-0.875 12.992-8.2227 19.512-10.754 30.781 15.234-2.4414 28.855-12.477 36.898-24.621 12.277-18.504 12.59-47.895 23.031-69.199 6.9453-14.023 25.066-30.715 38.465-30.781 13.219-0.042969 24.688 12.723 26.121 23.098 5.5352 39.113-49.219 43.75-46.172 81.5 25.898 10.172 50.695-39.52 75.383-38.441 14.336 0.60547 24.375 15.008 21.527 39.965-12.367 24.801-46.262 37.906-72.336 53.832-42.652-5.2422-61.672 26.434-87.637 43.059-40.594 6.543-72.605 21.684-92.23 49.195 4.6836 12.051 23.277 9.4102 35.328 9.207 16.062-0.22266 37.008-1.2773 53.832-4.5703 13.531-2.7109 26.613-12.031 39.965-9.2305 14 2.8672 29.93 24.195 24.621 36.875-3.9219 9.3633-23.613 17.184-35.352 20.027-34.77 8.4023-82.082 10.059-126.15 23.051-40.031 11.828-80.469 33.312-118.39 38.488-32.773 4.4141-64.562 8.4453-89.16 23.008-36.047 5.4648-69.781 17.316-106.1 35.395-17.922 8.8945-44.828 26.996-58.426 43.059-8.5117 10.059-24.328 28.473-20.004 46.215 1.6367 6.7422 14.672 18.371 21.508 21.484 40.121 18.215 103.79-3.1133 127.65-26.121 3.7617-37.883 26.234-84.457 50.762-104.62 14.562-11.984 39.742-18.371 44.582 7.707 6.8555 36.738-31.297 54.57-35.352 81.543 25.156 3.5625 48.031-11.918 69.199-23.074 50.898-26.816 97.07-57.574 147.68-90.75 22.109-14.473 46.305-23.926 58.402 7.707-12.992 50.047-62.098 49.957-92.297 81.523 40.527-0.53906 92.656-39.473 112.3 4.5938-2.1055 6.0703-6.0039 10.461-7.707 16.938-60.867 33.961-166.32 21.887-229.15 56.879 14.965 10.238 33.02 16.98 52.285 21.574 26.008 6.207 59.434-2.8438 70.746 24.621-18.102 27.262-52.285 19.266-84.59 18.438-28.34-12.68-49.309-34.453-84.57-33.828-13.262 0.17969-29.527 4.1445-44.559 6.1172-27.688 3.7188-53.047 10.418-83.066 10.73 9.8555 20.297 44.312 27.262 58.426 41.555 3.25 3.25 12.188 17.25 10.73 27.598-1.8359 13.688-22.516 23.188-33.805 21.598-21.258-3.1797-48.055-27.285-69.246-46.195-9.4102-8.4023-22-15.523-33.828-23.051-10.82-6.8984-23.344-18.594-33.828-20.004-33.289-4.2109-51.75 27.531-46.148 56.902 5.5352 28.988 36.492 32.797 59.992 43.078 23.367 10.281 37.211 27.938 55.379 46.125 0.33594 9.4531 2.5977 14.918 1.5469 21.551-17.719 29.414-58.27 20.566-96.934 24.621-9.543 1.0547-19.109 5.332-29.191 6.1602-23.051 1.8828-47.133-3.7617-72.316-3.1133-34.836 0.875-80.582 13.688-121.49 10.73-22.625-1.6133-53.117-5.8477-53.832-29.258-0.80469-27.598 36.473-26.68 44.602-49.172-15.594-51.367-100.27-48.793-156.84-66.109-14.27-4.3242-32.035-12.523-38.441-18.461-10.574-9.6992-23.41-37.188-10.754-50.762 34.363-12.949 58.379 16.781 75.316 26.164 0.96484-19.086-27.531-29.684-30.734-44.625 10.688-19.242 37.164-4.2344 50.762 6.1172 17.629 13.555 29.84 38.934 43.078 49.219 29.461 4.5938 56.004 27.555 86.113 30.805-12.32-19.422-44.109-30.398-67.676-47.695-21.035-15.414-41.781-34.836-67.656-50.742-33.535-20.699-78.141-38.914-109.19-69.199-9.2539-9.0273-23.344-23.812-24.621-33.871-3.0703-24.465 20.676-34.477 39.965-23.074 19.895 11.738 32.664 44.805 49.219 59.992 11.156 1.9492 21.797 11.961 30.734 3.1367-5.2734-30.57-42.348-29.383-41.453-66.234 28.496-10.617 52.355 8.625 64.609 29.234 7.0586 11.984 7.9062 27.016 10.73 39.988 7.5703 34.613 30.332 61.516 66.133 66.152-7.4609-17.629-27.176-36.402-41.535-52.332-15.188-37.457-21.977-76.145-44.582-103.05-8.3789-9.9258-29.078-20.074-43.078-29.211-35.125-22.871-77.914-35.664-109.16-66.086-1.4102-9.7461-8.2227-16.02-4.6367-32.258 10.016-7.2578 23.59-12.77 36.898-9.2305 22.09 5.8711 33.469 49.398 58.449 41.535-0.46875-21.281-11.27-26.523-12.301-49.172 4.5234-8.4219 18.707-11.516 30.758-7.707 22.516 38.957 18.863 104.12 70.746 113.78 7.7969-8.8711 5.3086-22.445 4.6367-32.258-2.7539-38.555-10.91-62.816-29.258-83.066-9.9453-11.023-22.582-18.996-32.258-29.234-9.0742-9.5898-19.961-19.602-26.164-30.781-16.422-29.438-46.934-98.547 23.074-86.094 27.598 22.762 27.398 81.859 61.516 103.03 8.6914-52.711-45.008-100.95-24.621-153.79 14.27-6.3828 27.688-4.9492 41.535 0 22.895 26.66 19.559 76.457 20.004 119.96 0.37891 38.645 6.9883 72.047 1.5 106.1 10.082-1.6367 19.781-14.496 21.551-24.598 2.375-13.664-10.148-32.215-10.754-49.219-0.55859-15.098 7.6172-40.414 27.668-35.375 13.262 12.703-0.64844 31.633 13.844 41.535 6.9688-20.184 6.5625-47 13.82-63.039 8.3555-6.4062 22.379 0.17969 29.258 4.6367 11.672 40.277-8.0664 67.051-21.527 96.867-8.2227 18.215-15.301 33.535-26.145 50.762-7.5703 11.895-19.355 22.961-24.621 35.352-10.148 23.836-4.3906 48.992-7.707 79.93 9.4766 43.281 19.422 94.023 58.449 115.33 11.156-7.9297 5.0391-29.414 6.1367-41.488 2.957-32.551 15.594-59.457 18.438-87.727 36.582-66.242 59.793-152.94 52.285-247.55-2.0156-26.48-12.211-57.508-27.621-76.773-8.8711-11.133-28.137-18.863-43.035-29.211-35.664-24.73-66.379-53.047-93.82-87.637-15.391-19.398-29.234-40.48-44.582-63.062-9.6758-14.34-20.719-30.648-33.781-38.465-42.406-25.359-115.77 21.438-139.95-35.375 15.727-37.926 58.785-5.4883 86.137-3.0469-0.35938-11.625-7.5703-15.5-13.867-21.551-5.9805-5.7578-17.113-11.18-18.438-16.914-2.3281-10.059 18.348-17.832 30.738-15.391 21.707 4.2773 27.578 38.801 49.219 41.535 13.664-13.574-9.3398-31.363-13.82-50.762-2.2227-9.4336-2.2227-18.844 1.5195-29.215 55.535-28.766 54.906 77.559 75.383 107.64 6.543-0.37891 8.2656 4.0312 15.367 3.0703 6.3828-51.84-33.781-86.832-26.121-143.02 41.152-17.137 51.57 16.801 59.973 50.762 4.3477 17.539 9.0273 41.758 10.754 66.133 0.58203 8.1758-0.80469 20.184-3.0703 30.758-3.0898 14.137-7.9297 32.148-6.1602 47.695 6.0703 53.633 45.969 96.664 89.207 118.42 9.1641-16.645-7.8398-30.289-15.414-46.148-9.8359-20.723-18.215-49.238-27.668-75.359-9.8555-27.262-19.176-54.125-21.551-76.883-2.3516-23.523-4.9492-66.152 32.328-56.902 18.391 27.938 10.508 91.871 32.305 124.55 7.2344-0.875 17.832-8.8711 18.414-18.438 2.0625-32.84-3.6523-114.21 12.32-129.17 7.4375-7.0117 20.074-4.6836 30.734 0 6.3828 18.527 10.238 49.441 9.2305 75.34-0.26953 6.7891-4.0312 12.793-4.6133 19.984-1.4102 17.43 2.957 35.574 1.5234 46.148-3.8516 29.281-18.348 48.793-15.391 86.137 2.2383 27.867 12.188 46.664 21.527 69.199 7.9062 19.109 18.035 60.531 33.828 58.449 19.758-2.6211 32.012-64.227 30.781-81.5-3.5391-50.113-66.398-99.578-33.852-155.32 10.688-4.7031 13.398-14.832 27.668-9.2305 25 9.7891 10.016 102.02 46.148 104.55 14.496-30.961 1.9023-81.926 9.2539-116.85 4.3242-20.656 28.609-54.414 47.648-26.145 0.94141 1.4102 4.1445 10.91 4.6133 13.844 3.5859 21.73-2.082 53.117-3.0898 83.066-1.4102 43.73 2.1289 85.285-19.984 115.3-13.555 39.898-34.613 74.086-52.266 112.28-10.863 26.102-38.977 57.441-27.664 90.688z"/>
</svg>
